<svg xmlns="http://www.w3.org/2000/svg" width="361.78" height="361.78" viewBox="0 0 361.78 361.78">
  <g id="icono_servicios" transform="translate(5727.851 -6327.88)">
    <circle id="Ellipse_32" data-name="Ellipse 32" cx="180.89" cy="180.89" r="180.89" transform="translate(-5727.851 6327.88)" fill="#1cab7f"/>
    <path id="water-svgrepo-com" d="M51.413,149.36a21.236,21.236,0,1,1-35.912-.041l12.188-20.69a6.671,6.671,0,0,1,11.512,0ZM170.471,38.9H126.731v-.919a6.708,6.708,0,0,0-6.69-6.727H110.022V25.432H137.37a6.708,6.708,0,0,0,6.69-6.727V14.893A14.87,14.87,0,0,0,129.248,0h-60.9A14.869,14.869,0,0,0,53.534,14.893v3.813a6.708,6.708,0,0,0,6.69,6.727H87.573v5.825H77.552a6.708,6.708,0,0,0-6.69,6.727V38.9H53.024A44.1,44.1,0,0,0,9.1,83.074v22.6A6.733,6.733,0,0,0,11.7,118.593H51.3a6.73,6.73,0,0,0,3.03-12.719V90.688a7.192,7.192,0,0,1,7.164-7.2h9.367v2.284a6.708,6.708,0,0,0,6.69,6.727h42.489a6.708,6.708,0,0,0,6.69-6.727v-.3H170.47a6.708,6.708,0,0,0,6.69-6.727V45.629A6.707,6.707,0,0,0,170.471,38.9Z" transform="translate(-5638.047 6417.925)" fill="#fff"/>
  </g>
</svg>
