<svg xmlns="http://www.w3.org/2000/svg" width="361.78" height="361.78" viewBox="0 0 361.78 361.78">
  <g id="icono_ropa" transform="translate(6152.131 -6330)">
    <circle id="Ellipse_32" data-name="Ellipse 32" cx="180.89" cy="180.89" r="180.89" transform="translate(-6152.131 6330)" fill="#a12ec2"/>
    <g id="plain-t-shirt-svgrepo-com" transform="translate(-6062.07 6435.433)">
      <g id="Group_402" data-name="Group 402" transform="translate(-10 -14.969)">
        <path id="Path_112" data-name="Path 112" d="M151.356,183.645H44.147a8.114,8.114,0,0,1-8.114-8.114V80.924a8.068,8.068,0,0,1-6.9-2.295L2.378,51.876a8.111,8.111,0,0,1,0-11.474L37.366,5.409A8.112,8.112,0,0,1,43.1,3.031H69.855a8.114,8.114,0,0,1,8.114,8.114v3.85c2.423,5.673,8.051,10.235,15.078,12.193h15.568c7.027-1.955,12.658-6.52,15.078-12.193v-3.85a8.114,8.114,0,0,1,8.114-8.114H158.56A8.1,8.1,0,0,1,164.3,5.409L199.281,40.4a8.111,8.111,0,0,1,0,11.474L172.524,78.629a8.111,8.111,0,0,1-11.474,0l-1.58-1.576v98.481A8.109,8.109,0,0,1,151.356,183.645Zm-99.1-16.224h90.986V57.462a8.111,8.111,0,0,1,13.849-5.735l9.693,9.693L182.068,46.14,155.192,19.262H139.427c-4.076,11.731-14.481,20.671-27.865,23.928a8.084,8.084,0,0,1-1.916.229H92.006a8.063,8.063,0,0,1-1.916-.229C76.705,39.933,66.3,30.993,62.224,19.262H46.463L19.587,46.14,34.87,61.42l3.541-3.541A8.111,8.111,0,0,1,52.26,63.614V167.421h0Z" transform="translate(0 -3.031)" fill="#fff"/>
      </g>
    </g>
  </g>
</svg>
