<svg xmlns="http://www.w3.org/2000/svg" width="361.78" height="361.78" viewBox="0 0 361.78 361.78">
  <g id="icono_educacion" transform="translate(6576.411 -6332.58)">
    <circle id="Ellipse_32" data-name="Ellipse 32" cx="180.89" cy="180.89" r="180.89" transform="translate(-6576.411 6332.58)" fill="#0f9ecb"/>
    <g id="education-svgrepo-com" transform="translate(-6530.979 6408.755)">
      <path id="Path_109" data-name="Path 109" d="M134.735,107.275c-5.788.386-11.191-1.929-16.979-3.859C87.271,93.384,56.787,83.351,26.688,72.932a20.79,20.79,0,0,1-5.016-2.7c-1.929-1.544-1.929-3.473,0-5.016a14.255,14.255,0,0,1,5.4-2.7C59.488,52.866,91.9,43.219,124.316,33.186a36.921,36.921,0,0,1,22.381,0c32.028,9.647,64.442,19.294,96.47,28.941a38.946,38.946,0,0,1,5.788,2.7c2.315,1.544,2.315,3.859,0,5.4a13.041,13.041,0,0,1-4.631,2.315c-32.028,10.8-64.442,21.609-96.856,32.028A29.078,29.078,0,0,1,134.735,107.275Z" transform="translate(0 0)" fill="#fff"/>
      <path id="Path_110" data-name="Path 110" d="M37.588,51.686c-4.631-1.158-5.788,1.929-5.788,4.245V92.589c0,4.245,1.544,6.946,4.245,9.647a21.2,21.2,0,0,0,3.473,2.7c7.718,5.4,16.593,8.875,25.854,11.19,18.136,5.016,36.659,5.788,55.181,3.473a125.069,125.069,0,0,0,35.115-9.647c5.016-2.315,9.647-5.016,13.12-8.875,2.315-2.315,3.473-4.631,3.087-8.1.386-11.576.386-23.539.386-35.5,0-6.56-4.631-5.788-6.56-5.4-16.979,5.788-34.343,11.19-51.322,16.979a39.83,39.83,0,0,1-25.082,0Z" transform="translate(33.09 57.133)" fill="#fff"/>
      <path id="Path_111" data-name="Path 111" d="M82.726,50.246c-1.544.386-1.929,1.158-1.929,2.7V85.361a11.268,11.268,0,0,1-.772,3.473c-2.315,5.788-5.016,11.576-6.946,17.365a14.434,14.434,0,0,0,3.087,15.049,20.225,20.225,0,0,0,4.245,3.859,15.225,15.225,0,0,0,5.788,2.315c3.473.386,6.174-1.544,8.489-3.473l3.473-3.473c2.7-3.473,3.473-8.489,2.315-13.12a74.472,74.472,0,0,0-7.332-18.136,7.445,7.445,0,0,1-1.158-3.859V49.86c0-2.315-1.929-1.929-2.7-1.544Z" transform="translate(148.478 47.383)" fill="#fff"/>
    </g>
  </g>
</svg>
