<svg xmlns="http://www.w3.org/2000/svg" width="361.78" height="361.78" viewBox="0 0 361.78 361.78">
  <g id="icono_trabajo" transform="translate(7424.97 -6330)">
    <circle id="Ellipse_32" data-name="Ellipse 32" cx="180.89" cy="180.89" r="180.89" transform="translate(-7424.97 6330)" fill="#3469d3"/>
    <g id="briefcase-svgrepo-com" transform="translate(-7644.08 6817.439)">
      <path id="Path_108" data-name="Path 108" d="M18.373,200.13H177.627A18.393,18.393,0,0,0,196,181.758V71.177A18.393,18.393,0,0,0,177.627,52.8h-35.37V39.025a18.393,18.393,0,0,0-18.373-18.373H72.116A18.393,18.393,0,0,0,53.743,39.025V52.8H18.373A18.393,18.393,0,0,0,0,71.177v110.58A18.393,18.393,0,0,0,18.373,200.13Zm159.254-12.248H18.373a6.128,6.128,0,0,1-6.124-6.124V112.091H35.824v11.737H48.073V112.091h99.854v11.737h12.248V112.091h23.576v69.666A6.128,6.128,0,0,1,177.627,187.882ZM65.991,39.025A6.131,6.131,0,0,1,72.116,32.9h51.769a6.13,6.13,0,0,1,6.124,6.124V52.8H65.991ZM18.373,65.053H177.627a6.13,6.13,0,0,1,6.124,6.124V99.843H160.176V88.109H147.927V99.843H48.073V88.109H35.824V99.843H12.248V71.177A6.131,6.131,0,0,1,18.373,65.053Z" transform="translate(302 -418)" fill="#fff"/>
    </g>
  </g>
</svg>
