<svg xmlns="http://www.w3.org/2000/svg" width="361.78" height="361.78" viewBox="0 0 361.78 361.78">
  <g id="icono_ahorros" transform="translate(7000.69 -6327.88)">
    <circle id="Ellipse_32" data-name="Ellipse 32" cx="180.89" cy="180.89" r="180.89" transform="translate(-7000.69 6327.88)" fill="#45c85b"/>
    <path id="savings-svgrepo-com" d="M205.2,94.966H189.624a70.625,70.625,0,0,0-29.2-33l-.062-23.9A6.856,6.856,0,0,0,150.2,32.082L132.158,42A44.573,44.573,0,1,0,44.482,57.316a70.909,70.909,0,0,0-14.925,123.4v22.288a6.857,6.857,0,0,0,6.857,6.857H70.908a6.857,6.857,0,0,0,6.857-6.852l.006-8.972h39.872l-.033,8.943a6.856,6.856,0,0,0,6.857,6.882h32.45a6.857,6.857,0,0,0,6.857-6.857V182.185a70.893,70.893,0,0,0,29.139-40.294H205.2a6.857,6.857,0,0,0,6.857-6.857V101.823A6.857,6.857,0,0,0,205.2,94.966ZM87.9,16.357a30.836,30.836,0,0,1,30.425,36.025c-.015.069-.026.14-.038.21A30.863,30.863,0,1,1,87.9,16.357ZM198.341,128.177H187.462a6.857,6.857,0,0,0-6.739,5.591,57.179,57.179,0,0,1-27.28,38.711,6.857,6.857,0,0,0-3.383,5.911v17.762H131.35l.034-8.943a6.856,6.856,0,0,0-6.857-6.881H70.919a6.857,6.857,0,0,0-6.857,6.852l-.006,8.972H43.27V177.089a6.856,6.856,0,0,0-3.157-5.772,57.2,57.2,0,0,1,9.5-101.288,44.864,44.864,0,0,0,6.164,8.057h-5.6a6.857,6.857,0,1,0,0,13.713h75.445a6.857,6.857,0,0,0,0-13.713h-5.6a44.549,44.549,0,0,0,11.08-19.853l15.586-8.566.043,16.384a6.857,6.857,0,0,0,3.741,6.091,57.051,57.051,0,0,1,28.018,31.96,6.857,6.857,0,0,0,6.466,4.577H198.34v19.5Z" transform="translate(-6925.828 6402.516)" fill="#fff"/>
  </g>
</svg>
